<svg
    width="16"
    height="16"
    fill="none"
    viewBox="0 0 16 16"
    xmlns="http://www.w3.org/2000/svg"
>
    <defs>
        <clipPath id="clip0_79_18315">
            <rect width="16" height="16" fill="#fff"></rect>
        </clipPath>
    </defs>
    <g transform="translate(-17.378 -.34746)">
        <g
            transform="translate(17.378 .34753)"
            clip-path="url(#clip0_79_18315)"
        >
            <path
                d="m5.333 5.3332v-1.8667c0-0.74674 0-1.1201 0.14532-1.4053 0.12783-0.25088 0.33181-0.45485 0.58269-0.58268 0.28522-0.14533 0.65858-0.14533 1.4053-0.14533h5.0667c0.7467 0 1.1201 0 1.4053 0.14533 0.2509 0.12783 0.4549 0.3318 0.5827 0.58268 0.1453 0.28522 0.1453 0.65859 0.1453 1.4053v5.0667c0 0.74674 0 1.1201-0.1453 1.4053-0.1278 0.25093-0.3318 0.45483-0.5827 0.58273-0.2852 0.1453-0.6586 0.1453-1.4053 0.1453h-1.8667m-7.2 4h5.0667c0.74673 0 1.1201 0 1.4053-0.1453 0.25087-0.1279 0.45487-0.3318 0.58267-0.5827 0.1453-0.2852 0.1453-0.6586 0.1453-1.4053v-5.0667c0-0.74673 0-1.1201-0.1453-1.4053-0.1278-0.25088-0.3318-0.45485-0.58267-0.58268-0.28522-0.14533-0.65859-0.14533-1.4053-0.14533h-5.0667c-0.74674 0-1.1201 0-1.4053 0.14533-0.25088 0.12783-0.45486 0.3318-0.58269 0.58268-0.14532 0.28522-0.14532 0.65859-0.14532 1.4053v5.0667c0 0.7467 0 1.1201 0.14532 1.4053 0.12783 0.2509 0.33181 0.4548 0.58269 0.5827 0.28522 0.1453 0.65858 0.1453 1.4053 0.1453z"
                stroke="#7d7d7d"
                stroke-linecap="round"
                stroke-linejoin="round"
                stroke-width="1.5"
            ></path>
        </g>
    </g>
</svg>
