<svg
    width="16"
    height="16"
    fill="none"
    viewBox="0 0 16 16"
    xmlns="http://www.w3.org/2000/svg"
    color="#FF5A00"
>
    <path
        d="m5.3333 5.3333-2.6044 3.1252c-0.23254 0.27904-0.34881 0.41857-0.35058 0.5364-0.0016 0.10244 0.0441 0.1999 0.12378 0.26429 0.09166 0.07407 0.27328 0.07407 0.63652 0.07407h4.8613l-0.66667 5.3334 3.3334-4m-0.2333-4h2.4279c0.3632 0 0.5449 0 0.6365 0.07408 0.0797 0.06439 0.1254 0.16185 0.1238 0.26428-0.0018 0.11784-0.118 0.25736-0.3506 0.53641l-0.9042 1.085m-5.3183-5.3514 1.6181-1.9418-0.39981 3.1985m5.7332 9.4682-12-12"
        stroke="currentColor"
        stroke-linecap="round"
        stroke-linejoin="round"
        stroke-width="1.5"
    ></path>
</svg>
