<svg
    width="16"
    height="16"
    fill="none"
    viewBox="0 0 16 16"
    xmlns="http://www.w3.org/2000/svg"
    class="css-1rqphv2 eoyzdve0"
>
    <g transform="translate(-14.819 .072014)" fill="#7d7d7d">
        <path
            d="m19.992 1.2613h1.4942c0.36819 0 0.66667 0.29848 0.66667 0.66667s-0.29848 0.66667-0.66667 0.66667h-1.4667c-0.57106 0-0.95925 5.1e-4 -1.2593 0.02503-0.29228 0.02388-0.44175 0.06716-0.54602 0.12029-0.25088 0.12783-0.45485 0.33181-0.58268 0.58269-0.05313 0.10427-0.09641 0.25373-0.12029 0.54601-0.02452 0.30006-0.02504 0.68826-0.02504 1.2593v5.6c0 0.5711 5.2e-4 0.9593 0.02504 1.2593 0.02388 0.2923 0.06716 0.4418 0.12029 0.546 0.12783 0.2509 0.3318 0.4549 0.58268 0.5827 0.10427 0.0532 0.25374 0.0964 0.54602 0.1203 0.30006 0.0245 0.68825 0.0251 1.2593 0.0251h5.6c0.571 0 0.9592-6e-4 1.2593-0.0251 0.2923-0.0239 0.4417-0.0671 0.546-0.1203 0.2509-0.1278 0.4549-0.3318 0.5827-0.5827 0.0531-0.1042 0.0964-0.2537 0.1203-0.546 0.0245-0.3 0.025-0.6882 0.025-1.2593v-1.4667c0-0.36819 0.2985-0.66666 0.6667-0.66666s0.6666 0.29847 0.6666 0.66666v1.4943c0 0.5366 1e-4 0.9795-0.0294 1.3403-0.0306 0.3747-0.0963 0.7192-0.2612 1.0428-0.2557 0.5017-0.6636 0.9097-1.1654 1.1653-0.3235 0.1649-0.668 0.2306-1.0427 0.2612-0.3608 0.0295-0.8037 0.0295-1.3404 0.0295h-5.6551c-0.53664 0-0.97955 0-1.3403-0.0295-0.37473-0.0306-0.7192-0.0963-1.0428-0.2612-0.50176-0.2556-0.90971-0.6636-1.1654-1.1653-0.16486-0.3236-0.23057-0.6681-0.26119-1.0428-0.02948-0.3608-0.02947-0.8037-0.02946-1.3403v-5.6551c-1e-5 -0.53665-2e-5 -0.97956 0.02946-1.3404 0.03062-0.37474 0.09633-0.7192 0.26119-1.0428 0.25566-0.50177 0.66361-0.90972 1.1654-1.1654 0.32356-0.16486 0.66803-0.23057 1.0428-0.26118 0.3608-0.02948 0.80371-0.02948 1.3404-0.02947z"
        ></path>
        <path
            d="m24.153 1.928c0-0.36819 0.29847-0.66667 0.66666-0.66667h4c0.3682 0 0.6666 0.29848 0.6666 0.66667v4c0 0.36819-0.2984 0.66666-0.6666 0.66666s-0.6667-0.29847-0.6667-0.66666v-2.3905l-4.8619 4.8619c-0.26035 0.26035-0.68246 0.26035-0.94281 0s-0.26035-0.68246 0-0.94281l4.8619-4.8619h-2.3905c-0.36819 0-0.66666-0.29848-0.66666-0.66667z"
        ></path>
    </g>
</svg>
